"After years of helping their hubbies climb the ladder of success, three wives have been dumped for newer, curvier models. But the trio is determined to turn their pain into gain. They come up with a cleverly devious plan to hit their exes where it really hurts - in the wallet! Sit back and watch the sparks fly as The Wives get mad, get even and get it all. Justice has seldom been so sweet. Or so much fun."

=====================================================================================
General
Format                         : AVI
Format/Info                    : Audio Video Interleave
Format profile                 : OpenDML
File size                      : 1.36 GiB
Duration                       : 1h 38mn
Overall bit rate               : 1 983 Kbps
Writing application            : MEncoder UNKNOWN-4.4.1
Writing library                : MPlayer

Video
ID                             : 0
Format                         : MPEG-4 Visual
Format profile                 : Advanced Simple@L5
Format settings, BVOP          : 2
Format settings, QPel          : Yes
Format settings, GMC           : 3 warppoints
Format settings, Matrix        : Default (H.263)
Muxing mode                    : Packed bitstream
Codec ID                       : XVID
Codec ID/Hint                  : XviD
Duration                       : 1h 38mn
Bit rate                       : 1 529 Kbps
Width                          : 640 pixels
Height                         : 352 pixels
Display aspect ratio           : 16:9
Frame rate                     : 25.000 fps
Color space                    : YUV
Chroma subsampling             : 4:2:0
Bit depth                      : 8 bits
Scan type                      : Progressive
Compression mode               : Lossy
Bits/(Pixel*Frame)             : 0.272
Stream size                    : 1.05 GiB (77%)
Writing library                : XviD 1.1.0 Beta2 (UTC 2005-04-04)

Audio
ID                             : 1
Format                         : AC-3
Format/Info                    : Audio Coding 3
Mode extension                 : CM (complete main)
Format settings, Endianness    : Big
Codec ID                       : 2000
Duration                       : 1h 38mn
Bit rate mode                  : Constant
Bit rate                       : 448 Kbps
Channel(s)                     : 6 channels
Channel positions              : Front: L C R, Side: L R, LFE
Sampling rate                  : 48.0 KHz
Bit depth                      : 16 bits
Compression mode               : Lossy
Stream size                    : 315 MiB (23%)
Alignment                      : Split accross interleaves
Interleave, duration           : 501 ms (12.53 video frames)
Interleave, preload duration   : 500 ms

===================================================================================